<svg width="37" height="38" viewBox="0 0 37 38" fill="none" xmlns="http://www.w3.org/2000/svg">
<g clip-path="url(#clip0_1_128)">
<rect width="19" height="19" fill="#00D407"/>
<rect width="19" height="19" fill="#00D407"/>
<rect width="19" height="19" fill="#00D407"/>
<rect x="19" y="19" width="18" height="19" fill="#00D407"/>
<rect x="19" y="19" width="18" height="19" fill="#00D407"/>
<rect x="19" y="19" width="18" height="19" fill="#00D407"/>
<rect x="19" width="18" height="19" fill="#00D407"/>
<rect x="19" width="18" height="19" fill="#00D407"/>
<rect x="19" width="18" height="19" fill="#DA6600"/>
<rect y="19" width="19" height="19" fill="#00D407"/>
<rect y="19" width="19" height="19" fill="#00D407"/>
<rect y="19" width="19" height="19" fill="#DA6600"/>
<path d="M19.232 17.296C19.3813 17.9147 19.4987 18.4053 19.584 18.768L21.984 29.968V30C21.344 30.128 20.64 30.1707 19.872 30.128C19.104 30.1067 18.3787 30.0213 17.696 29.872H17.664C17.536 29.5307 17.408 29.1253 17.28 28.656C17.1733 28.1867 17.056 27.7067 16.928 27.216C16.8213 26.7253 16.704 26.256 16.576 25.808C16.448 25.36 16.3093 24.976 16.16 24.656C15.8827 24.6133 15.6693 24.592 15.52 24.592C15.3707 24.592 15.232 24.592 15.104 24.592C14.9973 24.592 14.8693 24.6027 14.72 24.624C14.592 24.624 14.4107 24.624 14.176 24.624C14.0267 24.9653 13.8987 25.3707 13.792 25.84C13.7067 26.288 13.6107 26.768 13.504 27.28C13.4187 27.7707 13.3227 28.2507 13.216 28.72C13.1093 29.1893 12.96 29.6053 12.768 29.968C12.7467 29.968 12.7253 29.9787 12.704 30C12.704 30 12.6933 30 12.672 30C12.5013 30.0427 12.0747 30.0427 11.392 30C10.7093 29.9573 9.64267 29.9467 8.192 29.968C8.17067 29.968 8.14933 29.9573 8.128 29.936C8.17067 29.7867 8.24533 29.3707 8.352 28.688C8.45867 28.0053 8.608 27.12 8.8 26.032C8.992 24.944 9.216 23.696 9.472 22.288C9.74933 20.8587 10.0693 19.344 10.432 17.744C10.7947 16.144 11.1893 14.48 11.616 12.752C12.0427 11.024 12.512 9.30667 13.024 7.6C13.1733 7.57867 13.3333 7.568 13.504 7.568C13.6747 7.568 13.8987 7.568 14.176 7.568C14.4533 7.568 14.8053 7.568 15.232 7.568C15.68 7.54667 16.256 7.504 16.96 7.44C17.024 7.71733 17.12 8.144 17.248 8.72C17.3973 9.27467 17.5467 9.91467 17.696 10.64C17.8667 11.344 18.0373 12.1013 18.208 12.912C18.4 13.7227 18.5813 14.5013 18.752 15.248C18.9227 15.9947 19.0827 16.6773 19.232 17.296ZM15.104 20.88C15.5093 20.8587 15.9147 20.848 16.32 20.848C16.1067 19.0133 15.9147 17.584 15.744 16.56C15.5947 15.536 15.456 14.8427 15.328 14.48C15.2213 14.1173 15.104 14.0427 14.976 14.256C14.8693 14.448 14.7627 14.8533 14.656 15.472C14.5707 16.0907 14.464 16.8693 14.336 17.808C14.2293 18.7467 14.1013 19.76 13.952 20.848C14.3147 20.8693 14.6987 20.88 15.104 20.88Z" fill="black"/>
<g clip-path="url(#clip1_1_128)">
<path d="M31.2861 9.86787L28.7597 10.5807L23.2997 21.1734L21.6546 20.1764L20.8237 21.7884L23.3383 23.3124L22.4556 25.0249C22.432 25.0301 22.4083 25.036 22.3847 25.0426C21.6871 25.2395 21.2925 26.005 21.5034 26.7524C21.7143 27.4999 22.4508 27.9463 23.1485 27.7495C23.8461 27.5526 24.2407 26.7871 24.0298 26.0397C24.0227 26.0144 24.0149 25.9894 24.0066 25.9649L24.8893 24.2524L27.4039 25.7765L28.2348 24.1644L26.5898 23.1674L32.0498 12.5747L31.2861 9.86787Z" fill="black"/>
<path d="M20.3599 25.1413C21.076 24.4626 21.6873 23.7614 22.7068 23.6355C22.8951 23.6123 23.1582 23.4705 23.3247 23.62C23.4927 23.7707 23.8153 23.8742 23.9114 24.0665" stroke="black" stroke-linecap="round"/>
</g>
</g>
<rect x="0.5" y="0.5" width="36" height="37" stroke="black"/>
<defs>
<clipPath id="clip0_1_128">
<rect width="37" height="38" fill="white"/>
</clipPath>
<clipPath id="clip1_1_128">
<rect width="19.3899" height="18.6745" fill="white" transform="translate(13 15.0272) rotate(-15.7561)"/>
</clipPath>
</defs>
</svg>
